<?xml version="1.0" encoding="utf-8"?>
<!-- Generator: Adobe Illustrator 24.0.1, SVG Export Plug-In . SVG Version: 6.00 Build 0)  -->
<svg version="1.1" id="Layer_1" xmlns="http://www.w3.org/2000/svg" xmlns:xlink="http://www.w3.org/1999/xlink" x="0px" y="0px"
	 viewBox="0 0 100 100" style="enable-background:new 0 0 100 100;" xml:space="preserve">
<g>
	<path d="M27.8,77.6h-8.3L0,22.4h8l15.8,47.8h0.2l15.9-47.8h7.6L27.8,77.6z"/>
	<path d="M92.1,39c-1.5-7.8-7.8-11.7-15.4-11.7C63.5,27.3,58,38.1,58,49.6c0,12.6,5.6,23.1,18.8,23.1c9.7,0,15.2-6.8,15.9-15.9h7.3
		c-1.4,13.8-10,22.1-23.9,22.1c-17.2,0-25.5-12.7-25.5-28.7c0-16,9.1-29,26.1-29c11.5,0,21,6.2,22.7,17.9H92.1z"/>
</g>
</svg>
