<?xml version="1.0" encoding="utf-8"?>
<!-- Generator: Adobe Illustrator 24.0.1, SVG Export Plug-In . SVG Version: 6.00 Build 0)  -->
<svg version="1.1" xmlns="http://www.w3.org/2000/svg" xmlns:xlink="http://www.w3.org/1999/xlink" x="0px" y="0px"
	 viewBox="0 0 4110.8 1994.8" style="enable-background:new 0 0 4110.8 1994.8;" xml:space="preserve">
<style type="text/css">
	.st0{fill:#FFFFFF;}
</style>
<g id="Layer_1">
	<g>
		<path class="st0" d="M195.5,1936V757h479v233h414V675c-5.6-3.1-10.6-7.4-14.4-12.8c-4.8-6.8-7.2-14.4-7.6-22.1h-31.1v-54h2600v54
			h-26.1c-0.5,10.5-4.8,20.2-12.2,27.7c-2.9,2.9-6.2,5.4-9.7,7.3v315h452v946H195.5z"/>
		<path d="M3615.5,606v14h-35.4c5.9,4.1,9.3,10.8,9.4,18c0,12.2-9.8,22-22,22v350h452v906h-3365h-439V777h439v233h454V660
			c-7.2,0-13.9-3.5-18-9.4c-7-9.9-4.6-23.7,5.4-30.6h-40.4v-14H3615.5 M3655.5,566h-40h-2560h-40v40v14v40h35
			c1.8,4.7,4.2,9.3,7.2,13.6c3.1,4.4,6.7,8.3,10.7,11.7V970h-374V777v-40h-40h-439h-40v40v1139v40h40h439h3365h40v-40v-906v-40h-40
			h-412V685.4c1.3-1.1,2.6-2.3,3.8-3.5c6.3-6.3,11.1-13.7,14.1-21.8h30v-40v-14V566L3655.5,566z"/>
	</g>
	<g id="windows">
		<rect x="3103.5" y="716" width="287" height="206"/>
		<rect x="1289.5" y="716" width="287" height="206"/>
		<rect x="3263.5" y="1499" width="122" height="220"/>
		<rect x="2833.5" y="1546" width="87" height="148"/>
		<rect x="2278.5" y="1546" width="87" height="148"/>
		<rect x="1820.5" y="1499" width="122" height="220"/>
		<rect x="1294.5" y="1499" width="122" height="220"/>
		<rect x="1820.5" y="1121" width="122" height="206"/>
		<rect x="1815.5" y="716" width="132" height="206"/>
		<rect x="2397.5" y="716" width="132" height="206"/>
		<rect x="2397.5" y="1120" width="132" height="206"/>
		<rect x="2678.5" y="716" width="132" height="206"/>
		<rect x="3258.5" y="1120" width="132" height="206"/>
		<rect x="3700.5" y="1120" width="132" height="206"/>
		<rect x="2678.5" y="1120" width="132" height="206"/>
		<rect x="1289.5" y="1121" width="132" height="206"/>
		<rect x="856.5" y="1121" width="124" height="206"/>
		<rect x="372.5" y="1121" width="124" height="206"/>
		<rect x="857.5" y="1499" width="122" height="220"/>
		<rect x="373.5" y="1499" width="122" height="220"/>
		<rect x="3705.5" y="1499" width="122" height="220"/>
	</g>
	<title>vc</title>
	<polygon points="2744.5,1847 2744.5,1464 2448.5,1464 2448.5,1847 2384.5,1847 2384.5,1916 2824.5,1916 2824.5,1847 	"/>
	<rect x="2520.5" y="1546" class="st0" width="151" height="301"/>
	<g>
		<polygon points="3547.5,1030 3547.5,626 1128.5,626 1128.5,1030 634.5,1030 634.5,797 97.2,797 740.2,346 3848.5,346 3848.5,175 
			3831.5,175 3831.5,111 3859.5,111 3859.5,54 4028.5,54 4028.5,111 4056.5,111 4056.5,175 4039.5,175 4039.5,346 4056.5,346 
			4056.5,1030 		"/>
		<path d="M4008.5,74v18h-15v39h26h17v24h-17v211h17v644h-469V606h-2459v404h-454V777h-494l586-411h309h53h2459h48h253V155h-17v-24
			h17h27V92h-16V74h16h98H4008.5 M4048.5,34h-40h-15h-98h-16h-40v40v17h-28v40v24v40h17v131h-213h-48h-2459h-53h-309h-12.6
			l-10.3,7.3l-586,411L33.8,817h126.7h454v193v40h40h454h40v-40V646h2379v364v40h40h469h40v-40V366v-40h-17V195h17v-40v-24V91h-28
			V74V34L4048.5,34z"/>
	</g>
</g>
<g id="Layer_2">
</g>
</svg>
