<svg xmlns="http://www.w3.org/2000/svg" viewBox="0 0 3917.67 1876"><title>vc_b</title><g id="white"><path d="M4142,928V732h22V698h-48V669h20V641H3997v28h21v29h-49v34h22V928H865.84L251.33,1359H333V2517H4147V1592h22V928ZM4007,659v-8h119v8Zm-28,63V708h175v14ZM1188,948H3728v220H1188Zm2511,906V1647h105v207Zm105,21v100.15L3709.12,1875Zm-268-400h119.28L3536,1608.83Zm0,400h119.28L3536,1975.15Zm-155-249V1475h132v151Zm132,249v113H3381V1875Zm-287-21V1647h132v207Zm132,21v100.15L3238.72,1875Zm-132-249V1492.29L3345.17,1626Zm12.72-151H3358v133.83Zm-145.93,0h90.42L3138,1534.78Zm90.32,151h-90.22l45.11-59.66Zm-57.05-75.44L3082,1608.83V1492.29ZM3179.25,1246a523.91,523.91,0,0,0-38.21,50.83c-18.51,27.85-42,68.83-59,117.88V1246ZM3062,1987.93s-26.56,2.23-38.21-18.93l.46-.45h-36.5l.46.45c-11.65,21.16-38.21,18.93-38.21,18.93,3-33.4,15.95-40.61,15.95-40.61v-31.7s-13-7.21-15.95-40.61c0,0,26.56-2.23,38.21,18.93h35.58C3035.44,1872.78,3062,1875,3062,1875c-2.58,28.84-12.6,38.15-15.28,40.16v32.6C3049.4,1949.78,3059.42,1959.09,3062,1987.93ZM2950,1854V1647h112v207Zm10.79-379h90.42L3006,1534.78Zm90.32,151h-90.22l45.11-59.66Zm-57.05-75.44L2950,1608.83V1492.29Zm23.88,0,44.06-58.27v116.54ZM2950,1453V1246h112v207Zm-32.95,494.32s13,7.21,15.95,40.61c0,0-26.56,2.23-38.21-18.93l.46-.45h-56.5l.46.45c-11.65,21.16-38.21,18.93-38.21,18.93,3-33.4,15.95-40.61,15.95-40.61l.73.71v-33.12l-.73.71s-13-7.21-15.95-40.61c0,0,26.56-2.23,38.21,18.93h55.58C2906.44,1872.78,2933,1875,2933,1875c-3,33.4-15.95,40.61-15.95,40.61l-.05,0v31.8ZM2643,2118v296h-67V2018h286v396h-68V2118Zm-84.79-149c-11.65,21.16-38.21,18.93-38.21,18.93,3-33.4,15.95-40.61,15.95-40.61l.73.71v-33.12l-.73.71s-13-7.21-15.95-40.61c0,0,26.56-2.23,38.21,18.93h55.58C2625.44,1872.78,2652,1875,2652,1875c-3,33.4-15.95,40.61-15.95,40.61l-.05,0v31.8l.05,0s13,7.21,15.95,40.61c0,0-26.56,2.23-38.21-18.93l.46-.45h-56.5Zm41.86-418.44,51.93-58.27v116.54Zm39.1,75.44H2532.83l53.17-59.66ZM2586,1534.78,2532.72,1475h106.56Zm-14.07,15.78L2520,1608.83V1492.29ZM2671,1875s26.56-2.23,38.21,18.93h35.58C2756.44,1872.78,2783,1875,2783,1875c-2.58,28.84-12.6,38.15-15.28,40.16v32.6c2.68,2,12.7,11.32,15.28,40.16,0,0-26.56,2.23-38.21-18.93l.46-.45h-36.5l.46.45c-11.65,21.16-38.21,18.93-38.21,18.93,3-33.4,15.95-40.61,15.95-40.61v-31.7S2674,1908.41,2671,1875Zm101.11-249h-90.22l45.11-59.66Zm-90.32-151h90.42L2727,1534.78Zm57.15,75.56,44.06-58.27v116.54ZM2671,1453V1246h112v207Zm44.06,97.56L2671,1608.83V1492.29ZM2783,1647v207H2671V1647Zm30.72-172h106.56L2867,1534.78Zm106.45,151H2813.83l53.17-59.66Zm-67.24-75.44L2801,1608.83V1492.29Zm28.14,0,51.93-58.27v116.54Zm-379.75,437.37s-26.64,2.23-38.32-18.93l.46-.45h-36.6l.46.45c-11.68,21.16-38.32,18.93-38.32,18.93,3-33.4,16-40.61,16-40.61v-31.7s-13-7.21-16-40.61c0,0,26.64-2.23,38.32,18.93H2463c11.68-21.16,38.32-18.93,38.32-18.93-2.59,28.81-12.61,38.13-15.32,40.15v32.62C2488.71,1949.8,2498.73,1959.12,2501.32,1987.93ZM2490.11,1626h-90.22l45.11-59.66Zm-90.32-151h90.42L2445,1534.78Zm57.15,75.56,44.06-58.27v116.54ZM2389,1453V1246h112v207Zm44.06,97.56L2389,1608.83V1492.29ZM2501,1647v207H2389V1647Zm-233.21-172h90.42L2313,1534.78Zm90.32,151h-90.22l45.11-59.66ZM2257,1453V1260.46c21.83,25.72,77.53,98.08,102.18,192.54Zm44.06,97.56L2257,1608.83V1492.29ZM2369,1647v207H2257V1647Zm-44.06-96.44,44.06-58.27v116.54Zm-15-253.73a523.91,523.91,0,0,0-38.21-50.83H2369v168.71C2352,1365.66,2328.47,1324.68,2310,1296.83ZM2093,1475h119.28L2093,1608.83Zm0,400h119.28L2093,1975.15Zm-155-249V1475h132v151Zm132,249v113H1938V1875Zm-309.83,0H1893v100.15Zm118.54,113H1746V1887.94ZM1746,1854V1647h147v207Zm0-228V1492.29L1878.71,1626Zm14.17-151H1893v133.83ZM1746,1453V1246h147v207Zm-47,434.94V1988H1579.83Zm-132,87.21V1875h119.28Zm0-121.15V1647h132v207Zm12.83-228L1699,1492.29V1626ZM1567,1608.83V1475h119.28ZM1412,1626V1475h132v151Zm132,249v113H1412V1875Zm-287-21V1647h132v207Zm132,21v100.15L1269.72,1875Zm-132-249V1492.29L1376.17,1626Zm12.72-151H1389v133.83ZM1257,1453V1246h132v207ZM469,1647v207H364V1647Zm-105-21V1400H469v226Zm105,249v100.15L374.12,1875Zm-10.21,113H364V1887.94ZM744,2483H369V2018H744ZM557,1424.73l62,62v50.56l-62-62-63,63v-50.56Zm-63,37.55V1400h62.27ZM557.73,1400H619v61.28ZM557,1500.73l62,62v50.56l-62-62-63,63v-50.56ZM606.28,1626H507.72L557,1576.73ZM618,1875v113H494V1875Zm131,113H654.2L749,1887.94Zm-105-12.85V1875h94.88ZM751,1854H646V1647H751Zm0-228H646V1400H751ZM314.67,1339,872.16,948H1168v240h5v9h34.35a27,27,0,0,0,13.65,38.08V1572H787V1339ZM1126,1875h94.88L1126,1975.15Zm-23,0v113H979V1875ZM948,1647v277.92a1006.76,1006.76,0,0,0-73.8-194.18A884.07,884.07,0,0,0,826.44,1647Zm-140,23.82c27.29,42.38,96.92,161.57,127.73,317.18H808ZM1226,2483H813V2018h413Zm5-495h-94.8l94.8-100.06Zm0-134H1126V1647h105Zm26,33.94L1376.17,1988H1257ZM2220,2483H1262V2018h958Zm5-495H2105.83L2225,1887.94Zm0-134H2093V1647h132Zm0-228H2105.83L2225,1492.29Zm0-173H2093V1246h132Zm32,534.93c3-33.4,16-40.61,16-40.61v-31.7s-13-7.21-16-40.61c0,0,26.64-2.23,38.32,18.93H2331c11.68-21.16,38.32-18.93,38.32-18.93-2.59,28.81-12.61,38.13-15.32,40.15v32.62c2.71,2,12.73,11.34,15.32,40.15,0,0-26.64,2.23-38.32-18.93l.46-.45h-36.6l.46.45C2283.64,1990.16,2257,1987.93,2257,1987.93ZM2502,2483H2262V2018h304v396h-64Zm440,0H2512v-59h430Zm247,0H2952v-69h-80V2018h317Zm5-495.07s-26.56,2.23-38.21-18.93l.46-.45h-36.5l.46.45c-11.65,21.16-38.21,18.93-38.21,18.93,3-33.4,15.95-40.61,15.95-40.61v-31.7s-13-7.21-15.95-40.61c0,0,26.56-2.23,38.21,18.93h35.58C3167.44,1872.78,3194,1875,3194,1875c-2.58,28.84-12.6,38.15-15.28,40.16v32.6C3181.4,1949.78,3191.42,1959.09,3194,1987.93Zm0-133.93H3082V1647h112Zm0-245.17-44.06-58.27,44.06-58.27Zm0-155.83H3091.82c24.65-94.46,80.35-166.82,102.18-192.54Zm32,434.94L3345.17,1988H3226ZM3663,2483H3231V2018h432Zm5-495H3548.83L3668,1887.94Zm0-134H3536V1647h132Zm0-228H3548.83L3668,1492.29Zm0-173H3536V1246h132Zm31,434.94L3793.8,1988H3699ZM4111,2483H3704V2018h407Zm-284-495V1875h124v113Zm289,0H3988.27c30.81-155.61,100.44-274.8,127.73-317.18Zm-140-63.08V1647h121.56a884.07,884.07,0,0,0-47.76,83.74A1006.76,1006.76,0,0,0,3976,1924.92ZM4149,1572H3700V1235.08a27,27,0,0,0,13.65-38.08H3743v-9h5V948h401Z" transform="translate(-251.33 -641)"/><rect x="1165.67" y="1430" width="122" height="220"/><rect x="1691.67" y="1430" width="122" height="220"/><rect x="3134.67" y="1430" width="122" height="220"/><rect x="3576.67" y="1430" width="122" height="220"/><rect x="728.67" y="1430" width="122" height="220"/><rect x="2149.67" y="1477" width="87" height="148"/><rect x="2704.67" y="1477" width="87" height="148"/><rect x="244.67" y="1430" width="122" height="220"/></g></svg>