<svg xmlns="http://www.w3.org/2000/svg" viewBox="0 0 3917.67 1852"><defs><style>.cls-1,.cls-4,.cls-5{fill:#fff;}.cls-1,.cls-2,.cls-3,.cls-4{stroke:#000;stroke-miterlimit:10;}.cls-1{stroke-width:20px;}.cls-2,.cls-4{stroke-width:10px;}.cls-3{fill:none;}</style></defs><title>vc_bw</title><g id="roof2"><polygon class="cls-1" points="31.67 708 525.67 708 525.67 941 979.67 941 979.67 297 617.67 297 31.67 708"/><rect class="cls-1" x="3438.67" y="297" width="469" height="644"/></g><g id="base"><path class="cls-2" d="M3690,1582V1232a22,22,0,0,0,12.64-40H3738v-14H1178v14h40.36a22,22,0,0,0,12.64,40v350H777v906H4142V1582Z" transform="translate(-251.33 -641)"/><rect class="cls-2" x="86.67" y="708" width="439" height="1139"/></g><g id="roof"><line class="cls-3" x1="930.17" y1="537" x2="930.17" y2="297"/><rect class="cls-1" x="926.67" y="297" width="2560" height="240"/><rect x="3739.67" y="62" width="151" height="235"/><rect class="cls-4" x="3722.67" y="62" width="185" height="24"/><rect x="3766.67" y="5" width="98" height="57"/><rect class="cls-4" x="3750.67" y="5" width="129" height="18"/></g><g id="brick"><rect class="cls-4" x="1005.67" y="1372" width="968" height="475"/><rect class="cls-4" x="556.67" y="1372" width="423" height="475"/><rect class="cls-4" x="112.67" y="1372" width="385" height="475"/><rect class="cls-4" x="2005.67" y="1372" width="937" height="475"/><rect class="cls-4" x="2974.67" y="1372" width="442" height="475"/><rect class="cls-4" x="3447.67" y="1372" width="417" height="475"/></g><g id="white"><rect class="cls-5" x="1005.67" y="605" width="132" height="207"/><rect class="cls-5" x="1160.67" y="834" width="132" height="151"/><rect class="cls-5" x="1160.67" y="1234" width="132" height="113"/><rect class="cls-5" x="1494.67" y="605" width="147" height="207"/><rect class="cls-5" x="1841.67" y="605" width="132" height="207"/><rect class="cls-5" x="3284.67" y="605" width="132" height="207"/><rect class="cls-5" x="1005.67" y="1006" width="132" height="207"/><rect class="cls-5" x="1494.67" y="1006" width="147" height="207"/><rect class="cls-5" x="1315.67" y="1006" width="132" height="207"/><rect class="cls-5" x="2974.67" y="1006" width="132" height="207"/><rect class="cls-5" x="3284.67" y="1006" width="132" height="207"/><rect class="cls-5" x="3447.67" y="1006" width="105" height="207"/><rect class="cls-5" x="1841.67" y="1006" width="132" height="207"/><rect class="cls-5" x="2005.67" y="1006" width="112" height="207"/><rect class="cls-5" x="2137.67" y="1006" width="112" height="207"/><rect class="cls-5" x="2698.67" y="1006" width="112" height="207"/><rect class="cls-5" x="2830.67" y="1006" width="112" height="207"/><rect class="cls-5" x="2419.67" y="1006" width="112" height="207"/><rect class="cls-5" x="2137.67" y="605" width="112" height="207"/><rect class="cls-5" x="2698.67" y="605" width="112" height="207"/><rect class="cls-5" x="2419.67" y="605" width="112" height="207"/><polygon class="cls-5" points="1494.67 851.29 1494.67 985 1627.39 985 1494.67 851.29"/><polygon class="cls-5" points="1641.67 967.83 1641.67 834 1508.84 834 1641.67 967.83"/><polygon class="cls-5" points="1494.67 1246.94 1494.67 1347 1627.39 1347 1494.67 1246.94"/><polygon class="cls-5" points="1641.67 1334.15 1641.67 1234 1508.84 1234 1641.67 1334.15"/><polygon class="cls-5" points="2974.67 851.29 2974.67 985 3093.84 985 2974.67 851.29"/><polygon class="cls-5" points="3106.67 967.83 3106.67 834 2987.39 834 3106.67 967.83"/><polygon class="cls-5" points="1005.67 851.29 1005.67 985 1124.84 985 1005.67 851.29"/><polygon class="cls-5" points="1137.67 967.83 1137.67 834 1018.39 834 1137.67 967.83"/><polygon class="cls-5" points="1005.67 1246.94 1005.67 1347 1124.84 1347 1005.67 1246.94"/><polygon class="cls-5" points="1137.67 1334.15 1137.67 1234 1018.39 1234 1137.67 1334.15"/><polygon class="cls-5" points="1447.67 851.29 1447.67 985 1328.5 985 1447.67 851.29"/><polygon class="cls-5" points="1315.67 967.83 1315.67 834 1434.95 834 1315.67 967.83"/><polygon class="cls-5" points="1447.67 1246.94 1447.67 1347 1328.5 1347 1447.67 1246.94"/><polygon class="cls-5" points="1315.67 1334.15 1315.67 1234 1434.95 1234 1315.67 1334.15"/><rect class="cls-5" x="3129.67" y="1234" width="132" height="113"/><rect class="cls-5" x="3575.67" y="1234" width="124" height="113"/><polygon class="cls-5" points="2974.67 1246.94 2974.67 1347 3093.84 1347 2974.67 1246.94"/><polygon class="cls-5" points="3106.67 1334.15 3106.67 1234 2987.39 1234 3106.67 1334.15"/><polygon class="cls-5" points="3447.67 1246.94 3447.67 1347 3542.47 1347 3447.67 1246.94"/><polygon class="cls-5" points="3552.67 1334.15 3552.67 1234 3457.79 1234 3552.67 1334.15"/><rect class="cls-5" x="1126" y="1647" width="105" height="207" transform="translate(2105.67 2860) rotate(-180)"/><rect class="cls-5" x="646" y="1647" width="105" height="207" transform="translate(1145.67 2860) rotate(-180)"/><rect class="cls-5" x="646" y="1400" width="105" height="226" transform="translate(1145.67 2385) rotate(-180)"/><rect class="cls-5" x="364" y="1400" width="105" height="226" transform="translate(581.67 2385) rotate(-180)"/><polygon class="cls-5" points="304.94 759 242.67 821.28 242.67 759 304.94 759"/><polygon class="cls-5" points="367.67 759 367.67 820.28 306.4 759 367.67 759"/><polygon class="cls-5" points="367.67 845.72 367.67 896.28 305.67 834.27 242.67 897.28 242.67 846.72 305.67 783.73 367.67 845.72"/><polygon class="cls-5" points="305.67 935.73 354.95 985 256.39 985 305.67 935.73"/><polygon class="cls-5" points="367.67 921.72 367.67 972.28 305.67 910.27 242.67 973.28 242.67 922.72 305.67 859.73 367.67 921.72"/><rect class="cls-5" x="364" y="1647" width="105" height="207" transform="translate(581.67 2860) rotate(-180)"/><rect class="cls-5" x="979" y="1875" width="124" height="113" transform="translate(1830.67 3222) rotate(-180)"/><rect class="cls-5" x="494" y="1875" width="124" height="113" transform="translate(860.67 3222) rotate(-180)"/><polygon class="cls-5" points="979.67 1246.94 979.67 1347 884.88 1347 979.67 1246.94"/><polygon class="cls-5" points="874.67 1334.15 874.67 1234 969.55 1234 874.67 1334.15"/><polygon class="cls-5" points="497.67 1246.94 497.67 1347 402.88 1347 497.67 1246.94"/><polygon class="cls-5" points="392.67 1334.15 392.67 1234 487.55 1234 392.67 1334.15"/><polygon class="cls-5" points="112.67 1246.94 112.67 1347 207.47 1347 112.67 1246.94"/><polygon class="cls-5" points="217.67 1334.15 217.67 1234 122.79 1234 217.67 1334.15"/><polygon class="cls-5" points="3416.67 1246.94 3416.67 1347 3297.5 1347 3416.67 1246.94"/><polygon class="cls-5" points="3284.67 1334.15 3284.67 1234 3403.95 1234 3284.67 1334.15"/><rect class="cls-5" x="1686.67" y="1234" width="132" height="113"/><polygon class="cls-5" points="1973.67 1246.94 1973.67 1347 1854.5 1347 1973.67 1246.94"/><polygon class="cls-5" points="1841.67 1334.15 1841.67 1234 1960.95 1234 1841.67 1334.15"/><polygon class="cls-5" points="3416.67 851.29 3416.67 985 3297.5 985 3416.67 851.29"/><polygon class="cls-5" points="3284.67 967.83 3284.67 834 3403.95 834 3284.67 967.83"/><rect class="cls-5" x="1686.67" y="834" width="132" height="151"/><rect class="cls-5" x="3129.67" y="834" width="132" height="151"/><polygon class="cls-5" points="1973.67 851.29 1973.67 985 1854.5 985 1973.67 851.29"/><polygon class="cls-5" points="1841.67 967.83 1841.67 834 1960.95 834 1841.67 967.83"/><polygon class="cls-5" points="2334.67 925.34 2387.84 985 2281.5 985 2334.67 925.34"/><polygon class="cls-5" points="2400.67 851.29 2400.67 967.83 2348.74 909.56 2400.67 851.29"/><polygon class="cls-5" points="2320.6 909.56 2268.67 967.83 2268.67 851.29 2320.6 909.56"/><polygon class="cls-5" points="2387.95 834 2334.67 893.78 2281.39 834 2387.95 834"/><polygon class="cls-5" points="2615.67 925.34 2668.84 985 2562.5 985 2615.67 925.34"/><polygon class="cls-5" points="2681.67 851.29 2681.67 967.83 2629.74 909.56 2681.67 851.29"/><polygon class="cls-5" points="2601.6 909.56 2549.67 967.83 2549.67 851.29 2601.6 909.56"/><polygon class="cls-5" points="2668.95 834 2615.67 893.78 2562.39 834 2668.95 834"/><polygon class="cls-5" points="2193.67 925.34 2238.79 985 2148.56 985 2193.67 925.34"/><polygon class="cls-5" points="2249.67 851.29 2249.67 967.83 2205.61 909.56 2249.67 851.29"/><polygon class="cls-5" points="2181.74 909.56 2137.67 967.83 2137.67 851.29 2181.74 909.56"/><polygon class="cls-5" points="2238.88 834 2193.67 893.78 2148.47 834 2238.88 834"/><polygon class="cls-5" points="2475.67 925.34 2520.79 985 2430.56 985 2475.67 925.34"/><polygon class="cls-5" points="2531.67 851.29 2531.67 967.83 2487.61 909.56 2531.67 851.29"/><polygon class="cls-5" points="2463.74 909.56 2419.67 967.83 2419.67 851.29 2463.74 909.56"/><polygon class="cls-5" points="2520.88 834 2475.67 893.78 2430.47 834 2520.88 834"/><polygon class="cls-5" points="2754.67 925.34 2799.79 985 2709.56 985 2754.67 925.34"/><polygon class="cls-5" points="2810.67 851.29 2810.67 967.83 2766.61 909.56 2810.67 851.29"/><polygon class="cls-5" points="2742.74 909.56 2698.67 967.83 2698.67 851.29 2742.74 909.56"/><polygon class="cls-5" points="2799.88 834 2754.67 893.78 2709.47 834 2799.88 834"/><polygon class="cls-5" points="2886.67 925.34 2931.79 985 2841.56 985 2886.67 925.34"/><polygon class="cls-5" points="2942.67 851.29 2942.67 967.83 2898.61 909.56 2942.67 851.29"/><polygon class="cls-5" points="2874.74 909.56 2830.67 967.83 2830.67 851.29 2874.74 909.56"/><polygon class="cls-5" points="2931.88 834 2886.67 893.78 2841.47 834 2931.88 834"/><polygon class="cls-5" points="2061.67 925.34 2106.79 985 2016.56 985 2061.67 925.34"/><polygon class="cls-5" points="2117.67 851.29 2117.67 967.83 2073.61 909.56 2117.67 851.29"/><polygon class="cls-5" points="2049.74 909.56 2005.67 967.83 2005.67 851.29 2049.74 909.56"/><polygon class="cls-5" points="2106.88 834 2061.67 893.78 2016.47 834 2106.88 834"/><path class="cls-5" d="M2310,1296.83c18.51,27.85,42,68.83,59,117.88V1246h-97.25A523.91,523.91,0,0,1,2310,1296.83Z" transform="translate(-251.33 -641)"/><path class="cls-5" d="M2257,1260.46V1453h102.18C2334.53,1358.54,2278.83,1286.18,2257,1260.46Z" transform="translate(-251.33 -641)"/><path class="cls-5" d="M3141,1296.83c-18.51,27.85-42,68.83-59,117.88V1246h97.25A523.91,523.91,0,0,0,3141,1296.83Z" transform="translate(-251.33 -641)"/><path class="cls-5" d="M3194,1260.46V1453H3091.82C3116.47,1358.54,3172.17,1286.18,3194,1260.46Z" transform="translate(-251.33 -641)"/><path class="cls-5" d="M4049.8,1730.74a1006.76,1006.76,0,0,0-73.8,194.18V1647h121.56A884.07,884.07,0,0,0,4049.8,1730.74Z" transform="translate(-251.33 -641)"/><path class="cls-5" d="M4116,1670.82V1988H3988.27C4019.08,1832.39,4088.71,1713.2,4116,1670.82Z" transform="translate(-251.33 -641)"/><path class="cls-5" d="M874.2,1730.74A1006.76,1006.76,0,0,1,948,1924.92V1647H826.44A884.07,884.07,0,0,1,874.2,1730.74Z" transform="translate(-251.33 -641)"/><path class="cls-5" d="M808,1670.82V1988H935.73C904.92,1832.39,835.29,1713.2,808,1670.82Z" transform="translate(-251.33 -641)"/><rect class="cls-5" x="2021.67" y="1252.94" width="81" height="74.61"/><path class="cls-5" d="M2257,1875s26.64-2.23,38.32,18.93L2273,1915.62S2260,1908.41,2257,1875Z" transform="translate(-251.33 -641)"/><path class="cls-5" d="M2369.32,1875s-26.64-2.23-38.32,18.93l22.32,21.68S2366.32,1908.41,2369.32,1875Z" transform="translate(-251.33 -641)"/><path class="cls-5" d="M2257,1987.93s26.64,2.23,38.32-18.93L2273,1947.32S2260,1954.53,2257,1987.93Z" transform="translate(-251.33 -641)"/><path class="cls-5" d="M2369.32,1987.93s-26.64,2.23-38.32-18.93l22.32-21.68S2366.32,1954.53,2369.32,1987.93Z" transform="translate(-251.33 -641)"/><rect class="cls-5" x="2153.67" y="1252.94" width="81" height="74.61"/><path class="cls-5" d="M2389,1875s26.64-2.23,38.32,18.93L2405,1915.62S2392,1908.41,2389,1875Z" transform="translate(-251.33 -641)"/><path class="cls-5" d="M2501.32,1875s-26.64-2.23-38.32,18.93l22.32,21.68S2498.32,1908.41,2501.32,1875Z" transform="translate(-251.33 -641)"/><path class="cls-5" d="M2389,1987.93s26.64,2.23,38.32-18.93L2405,1947.32S2392,1954.53,2389,1987.93Z" transform="translate(-251.33 -641)"/><path class="cls-5" d="M2501.32,1987.93s-26.64,2.23-38.32-18.93l22.32-21.68S2498.32,1954.53,2501.32,1987.93Z" transform="translate(-251.33 -641)"/><rect class="cls-5" x="2435.63" y="1252.94" width="80.77" height="74.61"/><path class="cls-5" d="M2671,1875s26.56-2.23,38.21,18.93L2687,1915.62S2674,1908.41,2671,1875Z" transform="translate(-251.33 -641)"/><path class="cls-5" d="M2783,1875s-26.56-2.23-38.21,18.93l22.26,21.68S2780,1908.41,2783,1875Z" transform="translate(-251.33 -641)"/><path class="cls-5" d="M2671,1987.93s26.56,2.23,38.21-18.93L2687,1947.32S2674,1954.53,2671,1987.93Z" transform="translate(-251.33 -641)"/><path class="cls-5" d="M2783,1987.93s-26.56,2.23-38.21-18.93l22.26-21.68S2780,1954.53,2783,1987.93Z" transform="translate(-251.33 -641)"/><rect class="cls-5" x="2714.63" y="1252.94" width="80.77" height="74.61"/><path class="cls-5" d="M2950,1875s26.56-2.23,38.21,18.93L2966,1915.62S2953,1908.41,2950,1875Z" transform="translate(-251.33 -641)"/><path class="cls-5" d="M3062,1875s-26.56-2.23-38.21,18.93l22.26,21.68S3059,1908.41,3062,1875Z" transform="translate(-251.33 -641)"/><path class="cls-5" d="M2950,1987.93s26.56,2.23,38.21-18.93L2966,1947.32S2953,1954.53,2950,1987.93Z" transform="translate(-251.33 -641)"/><path class="cls-5" d="M3062,1987.93s-26.56,2.23-38.21-18.93l22.26-21.68S3059,1954.53,3062,1987.93Z" transform="translate(-251.33 -641)"/><rect class="cls-5" x="2846.63" y="1252.94" width="80.77" height="74.61"/><path class="cls-5" d="M3082,1875s26.56-2.23,38.21,18.93L3098,1915.62S3085,1908.41,3082,1875Z" transform="translate(-251.33 -641)"/><path class="cls-5" d="M3194,1875s-26.56-2.23-38.21,18.93l22.26,21.68S3191,1908.41,3194,1875Z" transform="translate(-251.33 -641)"/><path class="cls-5" d="M3082,1987.93s26.56,2.23,38.21-18.93L3098,1947.32S3085,1954.53,3082,1987.93Z" transform="translate(-251.33 -641)"/><path class="cls-5" d="M3194,1987.93s-26.56,2.23-38.21-18.93l22.26-21.68S3191,1954.53,3194,1987.93Z" transform="translate(-251.33 -641)"/><rect class="cls-5" x="2566.35" y="1252.94" width="99.32" height="74.61"/><path class="cls-5" d="M2801,1875s26.56-2.23,38.21,18.93L2817,1915.62S2804,1908.41,2801,1875Z" transform="translate(-251.33 -641)"/><path class="cls-5" d="M2933,1875s-26.56-2.23-38.21,18.93l22.26,21.68S2930,1908.41,2933,1875Z" transform="translate(-251.33 -641)"/><path class="cls-5" d="M2801,1987.93s26.56,2.23,38.21-18.93L2817,1947.32S2804,1954.53,2801,1987.93Z" transform="translate(-251.33 -641)"/><path class="cls-5" d="M2933,1987.93s-26.56,2.23-38.21-18.93l22.26-21.68S2930,1954.53,2933,1987.93Z" transform="translate(-251.33 -641)"/><rect class="cls-5" x="2285.35" y="1252.94" width="99.32" height="74.61"/><path class="cls-5" d="M2520,1875s26.56-2.23,38.21,18.93L2536,1915.62S2523,1908.41,2520,1875Z" transform="translate(-251.33 -641)"/><path class="cls-5" d="M2652,1875s-26.56-2.23-38.21,18.93l22.26,21.68S2649,1908.41,2652,1875Z" transform="translate(-251.33 -641)"/><path class="cls-5" d="M2520,1987.93s26.56,2.23,38.21-18.93L2536,1947.32S2523,1954.53,2520,1987.93Z" transform="translate(-251.33 -641)"/><path class="cls-5" d="M2652,1987.93s-26.56,2.23-38.21-18.93l22.26-21.68S2649,1954.53,2652,1987.93Z" transform="translate(-251.33 -641)"/><polygon points="305.67 758.27 306.4 759 304.94 759 305.67 758.27"/></g><g id="windows"><rect x="3134.67" y="1430" width="122" height="220"/><rect x="2704.67" y="1477" width="87" height="148"/><rect x="2149.67" y="1477" width="87" height="148"/><rect x="1691.67" y="1430" width="122" height="220"/><rect x="1165.67" y="1430" width="122" height="220"/><rect x="1691.67" y="1007" width="122" height="206"/><rect x="1686.67" y="605" width="132" height="206"/><rect x="2268.67" y="605" width="132" height="206"/><rect x="2268.67" y="1006" width="132" height="206"/><rect x="2549.67" y="605" width="132" height="206"/><rect x="2974.67" y="605" width="132" height="206"/><rect x="3129.67" y="605" width="132" height="206"/><rect x="3129.67" y="1006" width="132" height="206"/><rect x="3571.67" y="1006" width="132" height="206"/><rect x="2549.67" y="1006" width="132" height="206"/><rect x="1315.67" y="605" width="132" height="206"/><rect x="1160.67" y="605" width="132" height="206"/><rect x="1160.67" y="1007" width="132" height="206"/><rect x="727.67" y="1007" width="124" height="206"/><rect x="243.67" y="1007" width="124" height="206"/><rect x="728.67" y="1430" width="122" height="220"/><rect x="244.67" y="1430" width="122" height="220"/><rect x="3576.67" y="1430" width="122" height="220"/></g><g id="door"><rect class="cls-4" x="2319.67" y="1395" width="296" height="383"/><rect x="2391.67" y="1477" width="151" height="301"/><rect class="cls-4" x="2255.67" y="1778" width="440" height="69"/></g></svg>