<svg xmlns="http://www.w3.org/2000/svg" viewBox="0 0 3978.1 2688"><title>vc_thumbnail_circle</title><g id="Layer_3" data-name="Layer 3"><rect x="1197.1" y="1765.5" width="151" height="249"/><rect x="1723.1" y="1765.5" width="151" height="249"/><path d="M1238.36,2917.86v53.89a1337.11,1337.11,0,0,0,92.44,195.11h58.56v-249Zm1421,17v177h116v-177Zm0,0v177h116v-177Zm0,0v177h116v-177Zm555,0v177h116v-177Zm-555,0v177h116v-177Zm555,0v177h116v-177Zm-555,0v177h116v-177Zm555,0v177h116v-177Zm-555,0v177h116v-177Zm555,0v177h116v-177Zm-555,0v177h116v-177Zm555,0v177h116v-177Zm-555,0v177h116v-177Zm555,0v177h116v-177Zm-555,0v177h116v-177Zm555,0v177h116v-177Zm-555,0v177h116v-177Zm555,0v177h116v-177Zm-555,0v177h116v-177Zm555,0v177h116v-177Zm-555,0v177h116v-177Zm555,0v177h116v-177Zm-555,0v177h116v-177Zm555,0v177h116v-177Zm-555,0v177h116v-177Zm555,0v177h116v-177Zm-555,0v177h116v-177Zm555,0v177h116v-177Zm-555,0v177h116v-177Zm555,0v177h116v-177Zm-555,0v177h116v-177Zm555,0v177h116v-177Zm-555,0v177h116v-177Zm555,0v177h116v-177Zm-555,0v177h116v-177Zm555,0v177h116v-177Zm-555,0v177h116v-177Zm555,0v177h116v-177Zm-555,0v177h116v-177Zm555,0v177h116v-177Zm-555,0v177h116v-177Zm555,0v177h116v-177Zm-555,0v177h116v-177Zm555,0v177h116v-177Zm-555,0v177h116v-177Zm555,0v177h116v-177Zm-555,0v177h116v-177Zm555,0v177h116v-177Zm-555,0v177h116v-177Zm555,0v177h116v-177Zm-555,0v177h116v-177Zm555,0v177h116v-177Zm-555,0v177h116v-177Zm555,0v177h116v-177Zm-555,0v177h116v-177Zm555,0v177h116v-177Zm-555,0v177h116v-177Zm555,0v177h116v-177Zm-555,0v177h116v-177Zm555,0v177h116v-177Zm-555,0v177h116v-177Zm555,0v177h116v-177Zm-555,0v177h116v-177Zm555,0v177h116v-177Zm-555,0v177h116v-177Zm555,0v177h116v-177Zm-555,0v177h116v-177Zm555,0v177h116v-177Zm-555,0v177h116v-177Zm555,0v177h116v-177Zm-555,0v177h116v-177Zm555,0v177h116v-177Zm-555,0v177h116v-177Zm555,0v177h116v-177Zm-555,0v177h116v-177Zm555,0v177h116v-177Zm-555,0v177h116v-177Zm555,0v177h116v-177Zm-555,0v177h116v-177Zm555,0v177h116v-177Zm-555,0v177h116v-177Zm555,0v177h116v-177Zm-555,0v177h116v-177Zm555,0v177h116v-177Zm-555,0v177h116v-177Zm555,0v177h116v-177Zm-555,0v177h116v-177Zm555,0v177h116v-177Zm-555,0v177h116v-177Zm555,0v177h116v-177Zm-555,0v177h116v-177Zm555,0v177h116v-177Zm-555,0v177h116v-177Zm555,0v177h116v-177Zm-555,0v177h116v-177Zm555,0v177h116v-177Zm-555,0v177h116v-177Zm555,0v177h116v-177Zm-555,0v177h116v-177Zm555,0v177h116v-177Zm-555,0v177h116v-177Zm555,0v177h116v-177Zm-555,0v177h116v-177Zm555,0v177h116v-177Zm-555,0v177h116v-177Zm555,0v177h116v-177Zm-555,0v177h116v-177Zm555,0v177h116v-177Zm-555,0v177h116v-177Zm555,0v177h116v-177Zm-555,0v177h116v-177Zm555,0v177h116v-177Zm-555,0v177h116v-177Zm555,0v177h116v-177Zm609-442h16.49q-.06-25.11-1-50h-15.45v-122h5.14a1334.58,1334.58,0,0,0-89.4-336H1475.36v-191h2166.5q-15.26-24.87-31.58-49c-241.53-357.48-650.53-592.5-1114.42-592.5s-872.89,235-1114.42,592.5q-16.32,24.14-31.58,49h76.54l.75,249.59,25.39-.59h9.85a41.26,41.26,0,0,0,17,32v314H1156.1q-4.08,51.48-4.23,104h58.49v312h-22.92q7,29.76,15.29,59h281.63v436h-66q24.09,32.25,50.06,63c246.53,292,615.31,477.5,1027.41,477.5s780.88-185.47,1027.41-477.5q26-30.72,50.06-63h-60v-436H3789a1336.41,1336.41,0,0,0,39.64-193h-5.27Zm-454-401h83v178h-83Zm0,229h83v122h-83Zm0,172h83v178h-83Zm-210,738v-367h288v436h-208v-69Zm-335-367v367h-64v69h-211v-436Zm-274.5-58.5v-84h77.5v84Zm129,0v-84h77.5v84Zm120.5,464.5h401v30h-401Zm321-406v367h-39v-296h-180v296h-38v-367Zm-159.5-58.5v-84h77.5v84Zm409.06,0v-84h80.44v84Zm-132.56-713.5h83v178h-83Zm0,229h83v122h-83Zm0,172h83v178h-83Zm0,228.5h83v84h-83Zm-149-400.5h103v122h-103Zm-4.5,401h103v83.5h-103Zm-125.5-630h83v178h-83Zm0,229h83v122h-83Zm0,172h83v178h-83Zm-47.5,312.5h-103v-83.5h103Zm-103.5-484.5h103v122h-103Zm-131-229h83v178h-83Zm0,229h83v122h-83Zm0,172h83v178h-83Zm-132-401h83v178h-83Zm0,229h83v122h-83Zm0,172h83v178h-83Zm-164-401h103v178h-103Zm0,229h103v122h-103Zm0,172h103v178h-103Zm0,228h103v84h-103Zm98,143v436h-929v-436Zm-253-543h103v122h-103Zm0,400h103v84h-103Zm-192-629h118v178h-118Zm0,229h118v122h-118Zm0,172h118v178h-118Zm0,228h118v84h-118Zm-179-400h103v122h-103Zm0,172h103v178h-103Zm0,228h103v84h-103Zm-155-400h103v122h-103Zm0,400h103v84h-103Zm-155-629h103v178h-103Zm0,229h103v122h-103Zm0,172h103v178h-103Zm0,228h103v84h-103Zm-131-228h76v178h-76Zm-52,312h-95v-84h95Zm52,0v-84h76v84Zm2203,0h-103v-84h103Zm0-134h-103v-178h103Zm0-228h-103v-122h103Zm155,362h-103v-84h103Zm0-362h-103v-122h103Zm-441,492h-116v177h116Zm-555,0h-116v177h116Zm439,0v177h116v-177Zm-555,0v177h116v-177Zm555,0v177h116v-177Zm-555,0v177h116v-177Zm555,0v177h116v-177Zm-555,0v177h116v-177Zm555,0v177h116v-177Zm-555,0v177h116v-177Zm555,0v177h116v-177Zm-555,0v177h116v-177Zm555,0v177h116v-177Zm-555,0v177h116v-177Zm555,0v177h116v-177Zm-555,0v177h116v-177Zm555,0v177h116v-177Zm-555,0v177h116v-177Zm555,0v177h116v-177Zm-555,0v177h116v-177Zm555,0v177h116v-177Zm-555,0v177h116v-177Zm555,0v177h116v-177Zm-555,0v177h116v-177Zm555,0v177h116v-177Zm-555,0v177h116v-177Zm555,0v177h116v-177Zm-555,0v177h116v-177Zm555,0v177h116v-177Zm-555,0v177h116v-177Zm555,0v177h116v-177Zm-555,0v177h116v-177Zm555,0v177h116v-177Zm-555,0v177h116v-177Zm555,0v177h116v-177Zm-555,0v177h116v-177Zm555,0v177h116v-177Zm-555,0v177h116v-177Zm555,0v177h116v-177Zm-555,0v177h116v-177Zm555,0v177h116v-177Zm-555,0v177h116v-177Zm555,0v177h116v-177Zm-555,0v177h116v-177Zm555,0v177h116v-177Zm-555,0v177h116v-177Zm555,0v177h116v-177Zm-555,0v177h116v-177Zm555,0v177h116v-177Zm-555,0v177h116v-177Zm555,0v177h116v-177Zm-555,0v177h116v-177Zm555,0v177h116v-177Zm-555,0v177h116v-177Zm555,0v177h116v-177Zm-555,0v177h116v-177Zm555,0v177h116v-177Zm-555,0v177h116v-177Zm555,0v177h116v-177Zm-555,0v177h116v-177Zm555,0v177h116v-177Zm-555,0v177h116v-177Zm555,0v177h116v-177Zm-555,0v177h116v-177Zm555,0v177h116v-177Zm-555,0v177h116v-177Zm555,0v177h116v-177Zm-555,0v177h116v-177Zm555,0v177h116v-177Zm-555,0v177h116v-177Zm555,0v177h116v-177Zm-555,0v177h116v-177Zm555,0v177h116v-177Zm-555,0v177h116v-177Zm555,0v177h116v-177Zm-555,0v177h116v-177Zm555,0v177h116v-177Zm-555,0v177h116v-177Zm555,0v177h116v-177Zm-555,0v177h116v-177Zm555,0v177h116v-177Zm-555,0v177h116v-177Zm555,0v177h116v-177Zm-555,0v177h116v-177Zm555,0v177h116v-177Zm-555,0v177h116v-177Zm555,0v177h116v-177Zm-555,0v177h116v-177Zm555,0v177h116v-177Zm-555,0v177h116v-177Zm555,0v177h116v-177Zm-555,0v177h116v-177Zm555,0v177h116v-177Zm-555,0v177h116v-177Zm555,0v177h116v-177Zm-555,0v177h116v-177Zm555,0v177h116v-177Zm-555,0v177h116v-177Zm555,0v177h116v-177Zm-555,0v177h116v-177Zm555,0v177h116v-177Zm-555,0v177h116v-177Zm555,0v177h116v-177Zm-555,0v177h116v-177Zm555,0v177h116v-177Zm-555,0v177h116v-177Zm555,0v177h116v-177Zm-555,0v177h116v-177Zm985-17v249h16.56a1335.89,1335.89,0,0,0,111.51-249Zm-430,17v177h116v-177Zm-555,0v177h116v-177Zm0,0v177h116v-177Zm0,0v177h116v-177Zm0,0v177h116v-177Zm0,0v177h116v-177Z" transform="translate(-478.26 -1152.36)"/></g><g id="white"><path d="M4429.36,1744.86v-167h22v-63h-28v-57h-168v57h-28v63h22v167H1134.12l-655.86,460h113.1v1158h3843v-925h22v-693Zm-2954,49h2511v191h-2511Zm2511,877v-178h76v178Zm76,50v84h-76v-84Zm-394-278v-122h103v122Zm103,278v84h-103v-84Zm-258-50v-178h103v178Zm103,50v84h-103v-84Zm-103-278v-122h103v122Zm-276,228v-178h83v178Zm83,50.5v84h-83v-84Zm-83-278.5v-122h83v122Zm0-173v-178h83v178Zm-336,665v296h-38v-367h257v367h-39v-296Zm-93.5-213h103v83.5h-103Zm-.5-279v-122h103v122Zm234-122v122h-83v-122Zm-83-51v-178h83v178Zm83,223v178h-83v-178Zm-3,228.5v84h-77.5v-84Zm45.5,84v-83.5h103v83.5Zm4.5-362.5v-122h103v122Zm-412,228v-178h83v178Zm80,50.5v84h-77.5v-84Zm-80-278.5v-122h83v122Zm0-173v-178h83v178Zm-132,0v-178h83v178Zm83,51v122h-83v-122Zm-402,122v-122h103v122Zm103,278v84h-103v-84Zm-295-50v-178h118v178Zm118,50v84h-118v-84Zm-118-278v-122h118v122Zm0-173v-178h118v178Zm-179,401v-178h103v178Zm103,50v84h-103v-84Zm-103-278v-122h103v122Zm-155,0v-122h103v122Zm103,278v84h-103v-84Zm-258-278v-122h103v122Zm103,50v178h-103v-178Zm-103-223v-178h103v178Zm-817,223v178h-76v-178Zm-76-50v-197h76v197Zm76,278v84h-76v-84Zm275,579h-346v-436h346Zm-126-579v84h-95v-84Zm-94.5-278v-197h95v197Zm227.5,362h-76v-84h76Zm0-134h-76v-178h76Zm0-228h-76v-197h76Zm-375.9-287,516.14-362h276.8l.75,249.59,25.39-.59h9.85a41.26,41.26,0,0,0,17,32v314h-405v-233Zm727.9,565v84h-95v-84Zm-151-228v312h-110v-312Zm274,807h-384v-436h384Zm5-495h-76v-84h76Zm0-134h-76v-178h76Zm55,50h103v84h-103Zm934,579h-929v-436h929Zm5-495h-103v-84h103Zm0-134h-103v-178h103Zm0-228h-103v-122h103Zm0-173h-103v-178h103Zm61,223h83v178h-83Zm83,228.5v84h-77.5v-84Zm133,578.5h-211v-436h275v367h-64Zm440,0h-401v-30h401Zm247,0h-208v-69h-80v-367h288Zm3-494.5h-80.44v-84h80.44Zm2-134.5h-83v-178h83Zm0-228h-83v-122h83Zm0-173h-83v-178h83Zm474,1030h-413v-436h413Zm0-495h-103v-84h103Zm0-134h-103v-178h103Zm0-228h-103v-122h103Zm0-173h-103v-178h103Zm448,1030h-388v-436h388Zm-260-495v-84h95v84Zm260,0h-112v-312h112Zm33-416h-420v-314a41.28,41.28,0,0,0,17-32.28l31-.45V1793.86h372Z" transform="translate(-478.26 -1152.36)"/><rect x="1197.1" y="1765.5" width="151" height="249"/><rect x="1723.1" y="1765.5" width="151" height="249"/><rect x="3166.1" y="1765.5" width="151" height="249"/><rect x="3608.1" y="1765.5" width="151" height="249"/><rect x="760.1" y="1765.5" width="151" height="249"/><rect x="2181.1" y="1782.5" width="116" height="177"/><rect x="2736.1" y="1782.5" width="116" height="177"/><rect x="276.1" y="1765.5" width="151" height="249"/></g></svg>