<?xml version="1.0" encoding="utf-8"?>
<!-- Generator: Adobe Illustrator 24.0.1, SVG Export Plug-In . SVG Version: 6.00 Build 0)  -->
<svg version="1.1" id="Layer_1" xmlns="http://www.w3.org/2000/svg" xmlns:xlink="http://www.w3.org/1999/xlink" x="0px" y="0px"
	 viewBox="0 0 4030.2 4030.2" style="enable-background:new 0 0 4030.2 4030.2;" xml:space="preserve">
<title>vc_thumbnail_circle_2</title>
<g id="Layer_3">
	<rect x="1236.7" y="2436.6" width="151" height="249"/>
	<rect x="1762.7" y="2436.6" width="151" height="249"/>
	<path d="M2220.7,2453.6v177h116v-177H2220.7z M2220.7,2453.6v177h116v-177H2220.7z M2220.7,2453.6v177h116v-177H2220.7z
		 M2220.7,2453.6v177h116v-177H2220.7z M2220.7,2453.6v177h116v-177H2220.7z M2775.7,2453.6v177h116v-177H2775.7z M3205.7,2436.6
		v249h16.6c45.6-79,82.9-162.4,111.5-249H3205.7z M2220.7,2453.6v177h116v-177H2220.7z M2775.7,2453.6v177h116v-177H2775.7z
		 M2220.7,2453.6v177h116v-177H2220.7z M2775.7,2453.6v177h116v-177H2775.7z M2220.7,2453.6v177h116v-177H2220.7z M2775.7,2453.6
		v177h116v-177H2775.7z M2220.7,2453.6v177h116v-177H2220.7z M2775.7,2453.6v177h116v-177H2775.7z M2220.7,2453.6v177h116v-177
		H2220.7z M2775.7,2453.6v177h116v-177H2775.7z M2220.7,2453.6v177h116v-177H2220.7z M2775.7,2453.6v177h116v-177H2775.7z
		 M2220.7,2453.6v177h116v-177H2220.7z M2775.7,2453.6v177h116v-177H2775.7z M2220.7,2453.6v177h116v-177H2220.7z M2775.7,2453.6
		v177h116v-177H2775.7z M2220.7,2453.6v177h116v-177H2220.7z M2775.7,2453.6v177h116v-177H2775.7z M2220.7,2453.6v177h116v-177
		H2220.7z M2775.7,2453.6v177h116v-177H2775.7z M2220.7,2453.6v177h116v-177H2220.7z M2775.7,2453.6v177h116v-177H2775.7z
		 M2220.7,2453.6v177h116v-177H2220.7z M2775.7,2453.6v177h116v-177H2775.7z M2220.7,2453.6v177h116v-177H2220.7z M2775.7,2453.6
		v177h116v-177H2775.7z M2220.7,2453.6v177h116v-177H2220.7z M2775.7,2453.6v177h116v-177H2775.7z M2220.7,2453.6v177h116v-177
		H2220.7z M2775.7,2453.6v177h116v-177H2775.7z M2220.7,2453.6v177h116v-177H2220.7z M2775.7,2453.6v177h116v-177H2775.7z
		 M2220.7,2453.6v177h116v-177H2220.7z M2775.7,2453.6v177h116v-177H2775.7z M2220.7,2453.6v177h116v-177H2220.7z M2775.7,2453.6
		v177h116v-177H2775.7z M2220.7,2453.6v177h116v-177H2220.7z M2775.7,2453.6v177h116v-177H2775.7z M2220.7,2453.6v177h116v-177
		H2220.7z M2775.7,2453.6v177h116v-177H2775.7z M2220.7,2453.6v177h116v-177H2220.7z M2775.7,2453.6v177h116v-177H2775.7z
		 M2220.7,2453.6v177h116v-177H2220.7z M2775.7,2453.6v177h116v-177H2775.7z M2220.7,2453.6v177h116v-177H2220.7z M2775.7,2453.6
		v177h116v-177H2775.7z M2220.7,2453.6v177h116v-177H2220.7z M2775.7,2453.6v177h116v-177H2775.7z M2220.7,2453.6v177h116v-177
		H2220.7z M2775.7,2453.6v177h116v-177H2775.7z M2220.7,2453.6v177h116v-177H2220.7z M2775.7,2453.6v177h116v-177H2775.7z
		 M2220.7,2453.6v177h116v-177H2220.7z M2775.7,2453.6v177h116v-177H2775.7z M2220.7,2453.6v177h116v-177H2220.7z M2775.7,2453.6
		v177h116v-177H2775.7z M2220.7,2453.6v177h116v-177H2220.7z M2775.7,2453.6v177h116v-177H2775.7z M2220.7,2453.6v177h116v-177
		H2220.7z M2775.7,2453.6v177h116v-177H2775.7z M2220.7,2453.6v177h116v-177H2220.7z M2775.7,2453.6v177h116v-177H2775.7z
		 M2220.7,2453.6v177h116v-177H2220.7z M2775.7,2453.6v177h116v-177H2775.7z M2220.7,2453.6v177h116v-177H2220.7z M2775.7,2453.6
		v177h116v-177H2775.7z M2220.7,2453.6v177h116v-177H2220.7z M2775.7,2453.6v177h116v-177H2775.7z M2220.7,2453.6v177h116v-177
		H2220.7z M2775.7,2453.6v177h116v-177H2775.7z M2220.7,2453.6v177h116v-177H2220.7z M2775.7,2453.6v177h116v-177H2775.7z
		 M2220.7,2453.6v177h116v-177H2220.7z M2775.7,2453.6v177h116v-177H2775.7z M2220.7,2453.6v177h116v-177H2220.7z M2775.7,2453.6
		v177h116v-177H2775.7z M2220.7,2453.6v177h116v-177H2220.7z M2775.7,2453.6v177h116v-177H2775.7z M2220.7,2453.6v177h116v-177
		H2220.7z M2775.7,2453.6v177h116v-177H2775.7z M2220.7,2453.6v177h116v-177H2220.7z M2775.7,2453.6v177h116v-177H2775.7z
		 M2220.7,2453.6v177h116v-177H2220.7z M2775.7,2453.6v177h116v-177H2775.7z M2220.7,2453.6v177h116v-177H2220.7z M2775.7,2453.6
		v177h116v-177H2775.7z M2220.7,2453.6v177h116v-177H2220.7z M2775.7,2453.6v177h116v-177H2775.7z M2220.7,2453.6v177h116v-177
		H2220.7z M2775.7,2453.6v177h116v-177H2775.7z M2220.7,2453.6v177h116v-177H2220.7z M2775.7,2453.6v177h116v-177H2775.7z
		 M2220.7,2453.6v177h116v-177H2220.7z M2775.7,2453.6v177h116v-177H2775.7z M2220.7,2453.6v177h116v-177H2220.7z M2775.7,2453.6
		v177h116v-177H2775.7z M2220.7,2453.6v177h116v-177H2220.7z M2775.7,2453.6v177h116v-177H2775.7z M2220.7,2453.6v177h116v-177
		H2220.7z M2775.7,2453.6v177h116v-177H2775.7z M2220.7,2453.6v177h116v-177H2220.7z M2775.7,2453.6v177h116v-177H2775.7z
		 M2220.7,2453.6v177h116v-177H2220.7z M2775.7,2453.6v177h116v-177H2775.7z M2220.7,2453.6v177h116v-177H2220.7z M2775.7,2453.6
		v177h116v-177H2775.7z M2220.7,2453.6v177h116v-177H2220.7z M2775.7,2453.6v177h116v-177H2775.7z M2220.7,2453.6v177h116v-177
		H2220.7z M2775.7,2453.6v177h116v-177H2775.7z M2220.7,2453.6v177h116v-177H2220.7z M2775.7,2453.6v177h116v-177H2775.7z
		 M2220.7,2453.6v177h116v-177H2220.7z M2775.7,2453.6v177h116v-177H2775.7z M3384.7,2011.6h16.5c0-16.7-0.4-33.4-1-50h-15.4v-122
		h5.1c-15-115.4-45.1-228.4-89.4-336H1036.7v-191h2166.5c-10.2-16.6-20.7-32.9-31.6-49c-2.8-4.2-5.7-8.3-8.6-12.5
		c-242.6-350.4-647.4-580-1105.9-580s-863.3,229.6-1105.9,580c-2.9,4.2-5.7,8.3-8.6,12.5c-10.9,16.1-21.4,32.4-31.6,49h76.5
		l0.8,249.6l25.4-0.6h9.8c0.4,12.7,6.7,24.5,17,32v314H717.4c-2.7,34.3-4.1,69-4.2,104h58.5v312h-22.9c4.7,19.8,9.8,39.5,15.3,59
		h281.6v436h-66c16.1,21.5,32.7,42.5,50.1,63c3.5,4.2,7.1,8.4,10.7,12.5c246.4,284.8,610.5,465,1016.7,465s770.3-180.2,1016.7-465
		c3.6-4.1,7.2-8.3,10.7-12.5c17.3-20.5,34-41.5,50.1-63h-60v-436h275.7c17.9-63.3,31.2-127.8,39.6-193h-5.3L3384.7,2011.6z
		 M2930.7,1610.6h83v178h-83V1610.6z M2930.7,1839.6h83v122h-83V1839.6z M2930.7,2011.6h83v178h-83V2011.6z M2720.7,2749.6v-367h288
		v436h-208v-69H2720.7z M2385.7,2382.6v367h-64v69h-211v-436H2385.7z M2111.2,2324.1v-84h77.5v84H2111.2z M2240.2,2324.1v-84h77.5
		v84H2240.2z M2360.7,2788.6h401v30h-401V2788.6z M2681.7,2382.6v367h-39v-12.5h-10.5v-283.5h-155v283.5h-14.5v12.5h-38v-367H2681.7
		z M2522.2,2324.1v-84h77.5v84H2522.2z M2931.3,2324.1v-84h80.4v84H2931.3z M2798.7,1610.6h83v178h-83V1610.6z M2798.7,1839.6h83
		v122h-83V1839.6z M2798.7,2011.6h83v178h-83V2011.6z M2798.7,2240.1h83v84h-83V2240.1z M2649.7,1839.6h103v122h-103V1839.6z
		 M2645.2,2240.6h103v83.5h-103V2240.6z M2519.7,1610.6h83v178h-83V1610.6z M2519.7,1839.6h83v122h-83V1839.6z M2519.7,2011.6h83
		v178h-83V2011.6z M2472.2,2324.1h-103v-83.5h103V2324.1z M2368.7,1839.6h103v122h-103V1839.6z M2237.7,1610.6h83v178h-83V1610.6z
		 M2237.7,1839.6h83v122h-83V1839.6z M2237.7,2011.6h83v178h-83V2011.6z M2105.7,1610.6h83v178h-83V1610.6z M2105.7,1839.6h83v122
		h-83V1839.6z M2105.7,2011.6h83v178h-83V2011.6z M1941.7,1610.6h103v178h-103V1610.6z M1941.7,1839.6h103v122h-103V1839.6z
		 M1941.7,2011.6h103v178h-103V2011.6z M1941.7,2239.6h103v84h-103V2239.6z M2039.7,2382.6v436h-929v-436H2039.7z M1786.7,1839.6
		h103v122h-103V1839.6z M1786.7,2239.6h103v84h-103V2239.6z M1594.7,1610.6h118v178h-118V1610.6z M1594.7,1839.6h118v122h-118
		V1839.6z M1594.7,2011.6h118v178h-118V2011.6z M1594.7,2239.6h118v84h-118V2239.6z M1415.7,1839.6h103v122h-103V1839.6z
		 M1415.7,2011.6h103v178h-103V2011.6z M1415.7,2239.6h103v84h-103V2239.6z M1260.7,1839.6h103v122h-103V1839.6z M1260.7,2239.6h103
		v84h-103V2239.6z M1105.7,1610.6h103v178h-103V1610.6z M1105.7,1839.6h103v122h-103V1839.6z M1105.7,2011.6h103v178h-103V2011.6z
		 M1105.7,2239.6h103v84h-103V2239.6z M974.7,2011.6h76v178h-76V2011.6z M922.7,2323.6h-95v-84h95V2323.6z M974.7,2323.6v-84h76v84
		H974.7z M3177.7,2323.6h-103v-84h103V2323.6z M3177.7,2189.6h-103v-178h103V2189.6z M3177.7,1961.6h-103v-122h103V1961.6z
		 M3332.7,2323.6h-103v-84h103V2323.6z M3332.7,1961.6h-103v-122h103V1961.6z M2891.7,2453.6h-116v177h116V2453.6z M2336.7,2453.6
		h-116v177h116V2453.6z M2775.7,2453.6v177h116v-177H2775.7z M2220.7,2453.6v177h116v-177H2220.7z M2775.7,2453.6v177h116v-177
		H2775.7z M2220.7,2453.6v177h116v-177H2220.7z M2775.7,2453.6v177h116v-177H2775.7z M2220.7,2453.6v177h116v-177H2220.7z
		 M2775.7,2453.6v177h116v-177H2775.7z M2220.7,2453.6v177h116v-177H2220.7z M2775.7,2453.6v177h116v-177H2775.7z M2220.7,2453.6
		v177h116v-177H2220.7z M2775.7,2453.6v177h116v-177H2775.7z M2220.7,2453.6v177h116v-177H2220.7z M2775.7,2453.6v177h116v-177
		H2775.7z M2220.7,2453.6v177h116v-177H2220.7z M2775.7,2453.6v177h116v-177H2775.7z M2220.7,2453.6v177h116v-177H2220.7z
		 M2775.7,2453.6v177h116v-177H2775.7z M2220.7,2453.6v177h116v-177H2220.7z M2775.7,2453.6v177h116v-177H2775.7z M2220.7,2453.6
		v177h116v-177H2220.7z M2775.7,2453.6v177h116v-177H2775.7z M2220.7,2453.6v177h116v-177H2220.7z M2775.7,2453.6v177h116v-177
		H2775.7z M2220.7,2453.6v177h116v-177H2220.7z M2775.7,2453.6v177h116v-177H2775.7z M2220.7,2453.6v177h116v-177H2220.7z
		 M2775.7,2453.6v177h116v-177H2775.7z M2220.7,2453.6v177h116v-177H2220.7z M2775.7,2453.6v177h116v-177H2775.7z M2220.7,2453.6
		v177h116v-177H2220.7z M2775.7,2453.6v177h116v-177H2775.7z M2220.7,2453.6v177h116v-177H2220.7z M2775.7,2453.6v177h116v-177
		H2775.7z M2220.7,2453.6v177h116v-177H2220.7z M2775.7,2453.6v177h116v-177H2775.7z M2220.7,2453.6v177h116v-177H2220.7z
		 M2775.7,2453.6v177h116v-177H2775.7z M2220.7,2453.6v177h116v-177H2220.7z M2775.7,2453.6v177h116v-177H2775.7z M2220.7,2453.6
		v177h116v-177H2220.7z M2775.7,2453.6v177h116v-177H2775.7z M2220.7,2453.6v177h116v-177H2220.7z M2775.7,2453.6v177h116v-177
		H2775.7z M2220.7,2453.6v177h116v-177H2220.7z M2775.7,2453.6v177h116v-177H2775.7z M2220.7,2453.6v177h116v-177H2220.7z
		 M2775.7,2453.6v177h116v-177H2775.7z M2220.7,2453.6v177h116v-177H2220.7z M2775.7,2453.6v177h116v-177H2775.7z M2220.7,2453.6
		v177h116v-177H2220.7z M2775.7,2453.6v177h116v-177H2775.7z M2220.7,2453.6v177h116v-177H2220.7z M2775.7,2453.6v177h116v-177
		H2775.7z M2220.7,2453.6v177h116v-177H2220.7z M2775.7,2453.6v177h116v-177H2775.7z M2220.7,2453.6v177h116v-177H2220.7z
		 M2775.7,2453.6v177h116v-177H2775.7z M2220.7,2453.6v177h116v-177H2220.7z M2775.7,2453.6v177h116v-177H2775.7z M2220.7,2453.6
		v177h116v-177H2220.7z M2775.7,2453.6v177h116v-177H2775.7z M2220.7,2453.6v177h116v-177H2220.7z M2775.7,2453.6v177h116v-177
		H2775.7z M2220.7,2453.6v177h116v-177H2220.7z M2775.7,2453.6v177h116v-177H2775.7z M2220.7,2453.6v177h116v-177H2220.7z
		 M2775.7,2453.6v177h116v-177H2775.7z M2220.7,2453.6v177h116v-177H2220.7z M2775.7,2453.6v177h116v-177H2775.7z M2220.7,2453.6
		v177h116v-177H2220.7z M2775.7,2453.6v177h116v-177H2775.7z M2220.7,2453.6v177h116v-177H2220.7z M2775.7,2453.6v177h116v-177
		H2775.7z M2220.7,2453.6v177h116v-177H2220.7z M2775.7,2453.6v177h116v-177H2775.7z M2220.7,2453.6v177h116v-177H2220.7z
		 M2775.7,2453.6v177h116v-177H2775.7z M2220.7,2453.6v177h116v-177H2220.7z M2775.7,2453.6v177h116v-177H2775.7z M2220.7,2453.6
		v177h116v-177H2220.7z M2775.7,2453.6v177h116v-177H2775.7z M2220.7,2453.6v177h116v-177H2220.7z M2775.7,2453.6v177h116v-177
		H2775.7z M2220.7,2453.6v177h116v-177H2220.7z M2775.7,2453.6v177h116v-177H2775.7z M2220.7,2453.6v177h116v-177H2220.7z
		 M2775.7,2453.6v177h116v-177H2775.7z M2220.7,2453.6v177h116v-177H2220.7z M2775.7,2453.6v177h116v-177H2775.7z M2220.7,2453.6
		v177h116v-177H2220.7z M2775.7,2453.6v177h116v-177H2775.7z M2220.7,2453.6v177h116v-177H2220.7z M2775.7,2453.6v177h116v-177
		H2775.7z M2220.7,2453.6v177h116v-177H2220.7z M2775.7,2453.6v177h116v-177H2775.7z M2220.7,2453.6v177h116v-177H2220.7z
		 M2775.7,2453.6v177h116v-177H2775.7z M2220.7,2453.6v177h116v-177H2220.7z M2775.7,2453.6v177h116v-177H2775.7z M2220.7,2453.6
		v177h116v-177H2220.7z M2775.7,2453.6v177h116v-177H2775.7z M2220.7,2453.6v177h116v-177H2220.7z M2775.7,2453.6v177h116v-177
		H2775.7z M2220.7,2453.6v177h116v-177H2220.7z M2775.7,2453.6v177h116v-177H2775.7z M2220.7,2453.6v177h116v-177H2220.7z
		 M2775.7,2453.6v177h116v-177H2775.7z M2220.7,2453.6v177h116v-177H2220.7z M2775.7,2453.6v177h116v-177H2775.7z M2220.7,2453.6
		v177h116v-177H2220.7z M2775.7,2453.6v177h116v-177H2775.7z M2220.7,2453.6v177h116v-177H2220.7z M2775.7,2453.6v177h116v-177
		H2775.7z M2220.7,2453.6v177h116v-177H2220.7z M2775.7,2453.6v177h116v-177H2775.7z M2220.7,2453.6v177h116v-177H2220.7z
		 M2220.7,2453.6v177h116v-177H2220.7z M2220.7,2453.6v177h116v-177H2220.7z M799.7,2436.6v53.9c25.5,67.4,56.4,132.7,92.4,195.1
		h58.6v-249H799.7z"/>
</g>
<g id="white">
	<path d="M4003.2,1251.1v-142h22v-88h-28v-57h-193v57h-28v88h22v142H691.5L0,1736.1h140.2v1158h3868v-925h22v-718L4003.2,1251.1z
		 M3560.2,2024.1h51v153h-51V2024.1z M3560.2,2252.1h51v59h-51V2252.1z M3087.2,1949.1v-97h78v97H3087.2z M3087.2,2177.1v-153h78
		v153H3087.2z M3087.2,2311.1v-59h78v59H3087.2z M3242.2,1949.1v-97h78v97H3242.2z M3242.2,2311.1v-59h78v59H3242.2z M2250.2,1776.1
		v-153h58v153H2250.2z M2250.2,1949.1v-97h58v97H2250.2z M2305.2,2252.6v59h-52.5v-59H2305.2z M2250.2,2177.1v-153h58v153H2250.2z
		 M2532.2,1776.1v-153h58v153H2532.2z M2532.2,1949.1v-97h58v97H2532.2z M2587.2,2252.6v59h-52.5v-59H2587.2z M2532.2,2177.1v-153
		h58v153H2532.2z M2662.2,1949.1v-97h78v97H2662.2z M2657.7,2311.6v-58.5h78v58.5H2657.7z M2477.2,2453.6v283.5h-40v-342h232v342
		h-37v-283.5H2477.2z M2381.2,1949.1v-97h78v97H2381.2z M2381.7,2311.6v-58.5h78v58.5H2381.7z M2123.7,2311.6v-59h52.5v59H2123.7z
		 M2118.2,1949.1v-97h58v97H2118.2z M2118.2,1776.1v-153h58v153H2118.2z M2176.2,2024.1v153h-58v-153H2176.2z M2309.2,2806.1h-186
		v-411h250v342h-64V2806.1z M2996.2,2806.1h-183v-69h-80v-342h263V2806.1z M2811.2,1776.1v-153h58v153H2811.2z M2811.2,1949.1v-97
		h58v97H2811.2z M2811.2,2177.1v-153h58v153H2811.2z M2811.2,2311.6v-59h58v59H2811.2z M2999.2,2311.6h-55.4v-59h55.4V2311.6z
		 M3001.2,2177.1h-58v-153h58V2177.1z M3001.2,1949.1h-58v-97h58V1949.1z M3001.2,1776.1h-58v-153h58V1776.1z M2027.2,2806.1h-904
		v-411h904V2806.1z M1118.2,1776.1v-153h78v153H1118.2z M1118.2,1949.1v-97h78v97H1118.2z M1118.2,2177.1v-153h78v153H1118.2z
		 M1196.2,2252.1v59h-78v-59H1196.2z M1273.2,1949.1v-97h78v97H1273.2z M1273.2,2311.1v-59h78v59H1273.2z M1428.2,1949.1v-97h78v97
		H1428.2z M1428.2,2177.1v-153h78v153H1428.2z M1428.2,2311.1v-59h78v59H1428.2z M1607.2,1776.1v-153h93v153H1607.2z M1607.2,1949.1
		v-97h93v97H1607.2z M1607.2,2177.1v-153h93v153H1607.2z M1607.2,2311.1v-59h93v59H1607.2z M1799.2,1949.1v-97h78v97H1799.2z
		 M1799.2,2311.1v-59h78v59H1799.2z M2032.2,2311.1h-78v-59h78V2311.1z M2032.2,2177.1h-78v-153h78V2177.1z M2032.2,1949.1h-78v-97
		h78V1949.1z M2032.2,1776.1h-78v-153h78V1776.1z M910.2,2252.1v59h-70v-59H910.2z M759.2,2024.1v287h-85v-287H759.2z
		 M1038.2,2311.1h-51v-59h51V2311.1z M1038.2,2177.1h-51v-153h51V2177.1z M225.2,1777.1h51v172h-51V1777.1z M225.2,2024.1h51v153
		h-51V2024.1z M225.2,2252.1h51v59h-51V2252.1z M551.2,2806.1h-321v-411h321V2806.1z M425.2,2252.1v59h-70v-59H425.2z M355.7,1949.1
		v-172h70v172H355.7z M558.2,2311.1h-51v-59h51V2311.1z M558.2,2177.1h-51v-153h51V2177.1z M558.2,1949.1h-51v-172h51V1949.1z
		 M234.4,1662.1l480.5-337h260.4L976,1575l37-0.9c2.6,9.7,7.8,18.5,15.2,25.4v295.6h-380v-233H234.4z M674.2,2395.1h359v411h-359
		V2395.1z M3475.2,2806.1h-388v-411h388V2806.1z M3475.2,2311.1h-78v-59h78V2311.1z M3475.2,2177.1h-78v-153h78V2177.1z
		 M3475.2,1949.1h-78v-97h78V1949.1z M3475.2,1776.1h-78v-153h78V1776.1z M3535.2,1491.1h-2486v-166h2486V1491.1z M3923.2,2806.1
		h-363v-411h363V2806.1z M3688.2,2311.1v-59h70v59H3688.2z M3923.2,2311.1h-87v-287h87V2311.1z M3956.2,1895.1h-395v-295.6
		c7.5-7,12.8-15.9,15.3-25.8l32.7-0.5v-248.1h347V1895.1z"/>
	<rect x="1214.2" y="2436.1" width="196" height="272"/>
	<rect x="1740.2" y="2436.1" width="196" height="272"/>
	<rect x="3183.2" y="2436.1" width="196" height="272"/>
	<rect x="3625.2" y="2436.1" width="196" height="272"/>
	<rect x="777.2" y="2436.1" width="196" height="272"/>
	<rect x="2198.2" y="2444.9" width="141" height="194.4"/>
	<rect x="2770.2" y="2444.9" width="141" height="194.4"/>
	<rect x="293.2" y="2436.1" width="196" height="272"/>
</g>
</svg>
