<svg id="white" xmlns="http://www.w3.org/2000/svg" viewBox="0 0 4030.19 1930"><title>vc_thumbnail_2</title><path d="M4441.86,1732.36v-142h22v-88h-28v-57h-193v57h-28v88h22v142H1130.17l-691.5,485H578.86v1158h3868v-925h22v-718Zm-443,773h51v153h-51Zm0,228h51v59h-51Zm-473-303v-97h78v97Zm0,228v-153h78v153Zm0,134v-59h78v59Zm155-362v-97h78v97Zm0,362v-59h78v59Zm-992-535v-153h58v153Zm0,173v-97h58v97Zm55,303.5v59h-52.5v-59Zm-55-75.5v-153h58v153Zm282-401v-153h58v153Zm0,173v-97h58v97Zm55,303.5v59h-52.5v-59Zm-55-75.5v-153h58v153Zm130-228v-97h78v97Zm-4.5,362.5v-58.5h78v58.5Zm-180.5,142v283.5h-40v-342h232v342h-37v-283.5Zm-96-504.5v-97h78v97Zm.5,362.5v-58.5h78v58.5Zm-258,0v-59h52.5v59Zm-5.5-362.5v-97h58v97Zm0-173v-153h58v153Zm58,248v153h-58v-153Zm133,782h-186v-411h250v342h-64Zm687,0h-183v-69h-80v-342h263Zm-185-1030v-153h58v153Zm0,173v-97h58v97Zm0,228v-153h58v153Zm0,134.5v-59h58v59Zm188,0h-55.44v-59h55.44Zm2-134.5h-58v-153h58Zm0-228h-58v-97h58Zm0-173h-58v-153h58Zm-974,1030h-904v-411h904Zm-909-1030v-153h78v153Zm0,173v-97h78v97Zm0,228v-153h78v153Zm78,75v59h-78v-59Zm77-303v-97h78v97Zm0,362v-59h78v59Zm155-362v-97h78v97Zm0,228v-153h78v153Zm0,134v-59h78v59Zm179-535v-153h93v153Zm0,173v-97h93v97Zm0,228v-153h93v153Zm0,134v-59h93v59Zm192-362v-97h78v97Zm0,362v-59h78v59Zm233,0h-78v-59h78Zm0-134h-78v-153h78Zm0-228h-78v-97h78Zm0-173h-78v-153h78Zm-1122,476v59h-70v-59Zm-151-228v287h-85v-287Zm279,287h-51v-59h51Zm0-134h-51v-153h51Zm-813-400h51v172h-51Zm0,247h51v153h-51Zm0,228h51v59h-51Zm326,554h-321v-411h321Zm-126-554v59h-70v-59Zm-69.5-303v-172h70v172Zm202.5,362h-51v-59h51Zm0-134h-51v-153h51Zm0-228h-51v-172h51Zm-323.81-287,480.5-337h260.39l.75,249.88,37-.86a53.29,53.29,0,0,0,15.18,25.36v295.62h-380v-233Zm439.81,733h359v411h-359Zm2801,411h-388v-411h388Zm0-495h-78v-59h78Zm0-134h-78v-153h78Zm0-228h-78v-97h78Zm0-173h-78v-153h78Zm60-285h-2486v-166h2486Zm388,1315h-363v-411h363Zm-235-495v-59h70v59Zm235,0h-87v-287h87Zm33-416h-395V2080.74a53.34,53.34,0,0,0,15.3-25.8l32.7-.47V1806.36h347Z" transform="translate(-438.67 -1445.36)"/><rect x="1214.19" y="1472" width="196" height="272"/><rect x="1740.19" y="1472" width="196" height="272"/><rect x="3183.19" y="1472" width="196" height="272"/><rect x="3625.19" y="1472" width="196" height="272"/><rect x="777.19" y="1472" width="196" height="272"/><rect x="2198.19" y="1480.79" width="141" height="194.42"/><rect x="2770.19" y="1480.79" width="141" height="194.42"/><rect x="293.19" y="1472" width="196" height="272"/></svg>