<svg id="white" xmlns="http://www.w3.org/2000/svg" viewBox="0 0 3978.1 1905"><title>vc_thumbnail</title><path d="M4429.36,1744.86v-167h22v-63h-28v-57h-168v57h-28v63h22v167H1134.12l-655.86,460h113.1v1158h3843v-925h22v-693Zm-2954,49h2511v191h-2511Zm2511,877v-178h76v178Zm76,50v84h-76v-84Zm-394-278v-122h103v122Zm103,278v84h-103v-84Zm-258-50v-178h103v178Zm103,50v84h-103v-84Zm-103-278v-122h103v122Zm-276,228v-178h83v178Zm83,50.5v84h-83v-84Zm-83-278.5v-122h83v122Zm0-173v-178h83v178Zm-336,665v296h-38v-367h257v367h-39v-296Zm-93.5-213h103v83.5h-103Zm-.5-279v-122h103v122Zm234-122v122h-83v-122Zm-83-51v-178h83v178Zm83,223v178h-83v-178Zm-3,228.5v84h-77.5v-84Zm45.5,84v-83.5h103v83.5Zm4.5-362.5v-122h103v122Zm-412,228v-178h83v178Zm80,50.5v84h-77.5v-84Zm-80-278.5v-122h83v122Zm0-173v-178h83v178Zm-132,0v-178h83v178Zm83,51v122h-83v-122Zm-402,122v-122h103v122Zm103,278v84h-103v-84Zm-295-50v-178h118v178Zm118,50v84h-118v-84Zm-118-278v-122h118v122Zm0-173v-178h118v178Zm-179,401v-178h103v178Zm103,50v84h-103v-84Zm-103-278v-122h103v122Zm-155,0v-122h103v122Zm103,278v84h-103v-84Zm-258-278v-122h103v122Zm103,50v178h-103v-178Zm-103-223v-178h103v178Zm-817,223v178h-76v-178Zm-76-50v-197h76v197Zm76,278v84h-76v-84Zm275,579h-346v-436h346Zm-126-579v84h-95v-84Zm-94.5-278v-197h95v197Zm227.5,362h-76v-84h76Zm0-134h-76v-178h76Zm0-228h-76v-197h76Zm-375.9-287,516.14-362h276.8l.75,249.59,25.39-.59h9.85a41.26,41.26,0,0,0,17,32v314h-405v-233Zm727.9,565v84h-95v-84Zm-151-228v312h-110v-312Zm274,807h-384v-436h384Zm5-495h-76v-84h76Zm0-134h-76v-178h76Zm55,50h103v84h-103Zm934,579h-929v-436h929Zm5-495h-103v-84h103Zm0-134h-103v-178h103Zm0-228h-103v-122h103Zm0-173h-103v-178h103Zm61,223h83v178h-83Zm83,228.5v84h-77.5v-84Zm133,578.5h-211v-436h275v367h-64Zm440,0h-401v-30h401Zm247,0h-208v-69h-80v-367h288Zm3-494.5h-80.44v-84h80.44Zm2-134.5h-83v-178h83Zm0-228h-83v-122h83Zm0-173h-83v-178h83Zm474,1030h-413v-436h413Zm0-495h-103v-84h103Zm0-134h-103v-178h103Zm0-228h-103v-122h103Zm0-173h-103v-178h103Zm448,1030h-388v-436h388Zm-260-495v-84h95v84Zm260,0h-112v-312h112Zm33-416h-420v-314a41.28,41.28,0,0,0,17-32.28l31-.45V1793.86h372Z" transform="translate(-478.26 -1457.86)"/><rect x="1197.1" y="1460" width="151" height="249"/><rect x="1723.1" y="1460" width="151" height="249"/><rect x="3166.1" y="1460" width="151" height="249"/><rect x="3608.1" y="1460" width="151" height="249"/><rect x="760.1" y="1460" width="151" height="249"/><rect x="2181.1" y="1477" width="116" height="177"/><rect x="2736.1" y="1477" width="116" height="177"/><rect x="276.1" y="1460" width="151" height="249"/></svg>